<svg id="Слой_1" data-name="Слой 1" xmlns="http://www.w3.org/2000/svg" viewBox="0 0 217.08 27.5"><defs><style>.cls-1{fill:#fff;}.cls-2{fill:#9000ed;}</style></defs><path class="cls-1" d="M450.9,508.43V491.57h4.29v16.86Z" transform="translate(-391.46 -486.25)"/><path class="cls-1" d="M472.45,508.43l-7.76-10.38v10.38h-4V491.57h3.78L472.24,502V491.57h4v16.86Z" transform="translate(-391.46 -486.25)"/><path class="cls-1" d="M489.53,495v13.42h-4.29V495h-5v-3.47h14.41V495Z" transform="translate(-391.46 -486.25)"/><path class="cls-1" d="M506.21,503.69h-3.37v4.74h-4.29V491.57h7.54c4.46,0,7,2.12,7,5.88a5.63,5.63,0,0,1-3.07,5.42l3.55,5.56h-4.87Zm-.12-3.38c1.86,0,2.94-.94,2.94-2.72s-1.08-2.65-2.94-2.65h-3.25v5.37Z" transform="translate(-391.46 -486.25)"/><path class="cls-1" d="M534.07,500c0,4.91-3.9,8.65-9.13,8.65s-9.11-3.71-9.11-8.65,3.9-8.56,9.11-8.56S534.07,495.08,534.07,500Zm-13.86,0a4.92,4.92,0,0,0,4.78,5,5,5,0,1,0-4.78-5Z" transform="translate(-391.46 -486.25)"/><path class="cls-1" d="M551,493.25l-1.61,3.35a12.71,12.71,0,0,0-5.4-1.76c-1.11,0-1.86.41-1.86,1.23,0,2.92,8.92,1.26,8.92,7.35,0,3.38-3,5.16-6.75,5.16a12.57,12.57,0,0,1-7.71-2.7l1.67-3.3a10.47,10.47,0,0,0,6.09,2.53c1.35,0,2.19-.51,2.19-1.47,0-3-8.91-1.21-8.91-7.18,0-3.11,2.67-5.09,6.72-5.09A12.65,12.65,0,0,1,551,493.25Z" transform="translate(-391.46 -486.25)"/><path class="cls-1" d="M559.77,494.94v3.35h8.05v3.37h-8.05v3.4H569v3.37H555.48V491.57h13.21v3.37Z" transform="translate(-391.46 -486.25)"/><path class="cls-1" d="M581.5,503.69h-3.38v4.74h-4.29V491.57h7.55c4.46,0,7,2.12,7,5.88a5.64,5.64,0,0,1-3.06,5.42l3.54,5.56H584Zm-.12-3.38c1.85,0,2.94-.94,2.94-2.72s-1.09-2.65-2.94-2.65h-3.26v5.37Z" transform="translate(-391.46 -486.25)"/><path class="cls-1" d="M597.48,508.43l-6.55-16.86h4.57L599.82,504l4.31-12.41h4.41l-6.63,16.86Z" transform="translate(-391.46 -486.25)"/><path class="cls-2" d="M403.4,497.59v-11.2H391.46v27.32h12V497.58Zm-9.92-6.91,2.24-2.23h1.83l-4.07,4.06Zm7-2.23h.87v1l-7,7h-.85v-1Zm.87,5.74-2.26,2.26h-1.83l4.09-4.08Z" transform="translate(-391.46 -486.25)"/><path class="cls-2" d="M436.09,501.8H407.42v11.95h28.67a6,6,0,1,0,0-11.95Zm-10,7.41a1.44,1.44,0,1,1,1.43-1.44A1.43,1.43,0,0,1,426.07,509.21Zm5,0a1.44,1.44,0,1,1,1.43-1.44A1.43,1.43,0,0,1,431.1,509.21Zm5,0a1.44,1.44,0,1,1,1.44-1.44A1.43,1.43,0,0,1,436.13,509.21Z" transform="translate(-391.46 -486.25)"/><path class="cls-2" d="M412.75,498.2h28.68V486.25H412.75a6,6,0,0,0,0,11.95Zm18.91-1.92,7.84-7.85v1.83l-6,6Zm4.78,0,3.06-3.07V495l-1.23,1.24Zm.36-8.11-8.1,8.11h-1.83l8.11-8.11Zm-4.78,0-8.11,8.11h-1.82l8.1-8.11Zm-4.78,0-8.11,8.11H417.3l8.11-8.11Zm-4.79,0-8.1,8.11h-1.82l8.1-8.1Zm-4.78,0-7.31,7.32a4.18,4.18,0,0,1-.91-.92l6.39-6.4Zm-9,4.18s0-.08,0-.12a4.06,4.06,0,0,1,4.05-4.06h.13Z" transform="translate(-391.46 -486.25)"/></svg>